<svg width="30" height="30" viewBox="0 0 30 30" fill="none" xmlns="http://www.w3.org/2000/svg">
<path fill-rule="evenodd" clip-rule="evenodd" d="M8.90625 12.6855C8.90625 11.8268 9.17431 10.0299 10.0852 8.46451C10.9817 6.92375 12.484 5.625 15 5.625C17.5186 5.625 19.028 6.91187 19.9307 8.44466C20.848 10.0022 21.123 11.7982 21.123 12.6855C21.123 15.2661 19.77 18.2114 18.2542 20.5483C17.5018 21.7083 16.7233 22.6968 16.0815 23.3901C15.7596 23.7378 15.4797 24.0031 15.2605 24.1775C15.1504 24.2651 15.065 24.3222 15.0045 24.3552C15.003 24.356 15.0016 24.3568 15.0002 24.3575L14.9963 24.3554C14.936 24.3226 14.851 24.2655 14.7413 24.178C14.523 24.0037 14.2442 23.7385 13.9238 23.3908C13.2847 22.6976 12.5098 21.7091 11.761 20.5491C10.2526 18.2124 8.90625 15.2667 8.90625 12.6855ZM15 4.6875C12.0795 4.6875 10.3004 6.23055 9.27489 7.99301C8.26367 9.73083 7.96875 11.6986 7.96875 12.6855C7.96875 15.5409 9.43491 18.6743 10.9734 21.0576C11.748 22.2576 12.5551 23.2893 13.2344 24.0263C13.5732 24.3937 13.8876 24.6961 14.1564 24.9106C14.2903 25.0175 14.4222 25.1102 14.5474 25.1785C14.6594 25.2396 14.8213 25.3125 15 25.3125C15.1786 25.3125 15.3405 25.2397 15.4526 25.1787C15.5778 25.1105 15.71 25.0179 15.8443 24.9111C16.1138 24.6967 16.4294 24.3944 16.7695 24.027C17.4515 23.2901 18.2624 22.2584 19.0407 21.0584C20.5865 18.6754 22.0605 15.5416 22.0605 12.6855C22.0605 11.6686 21.758 9.69996 20.7385 7.96891C19.7045 6.21313 17.9179 4.6875 15 4.6875ZM15 14.0625C13.7056 14.0625 12.6562 13.0132 12.6562 11.7188C12.6562 10.4243 13.7056 9.375 15 9.375C16.2944 9.375 17.3437 10.4243 17.3437 11.7188C17.3437 13.0132 16.2944 14.0625 15 14.0625ZM11.7188 11.7188C11.7188 9.90657 13.1878 8.4375 15 8.4375C16.8122 8.4375 18.2812 9.90657 18.2812 11.7188C18.2812 13.5309 16.8122 15 15 15C13.1878 15 11.7188 13.5309 11.7188 11.7188Z" fill="#C19F77"/>
</svg>
