<svg width="62" height="62" viewBox="0 0 62 62" fill="none" xmlns="http://www.w3.org/2000/svg">
<g clip-path="url(#clip0_2945_746)">
<path d="M53.7333 11.0902C53.2405 10.651 52.5983 10.417 51.9384 10.4364C51.2786 10.4558 50.6512 10.7271 50.185 11.1945C49.7189 11.662 49.4494 12.2901 49.4319 12.95C49.4144 13.61 49.6501 14.2515 50.0908 14.7431C54.3952 19.0585 56.8125 24.9048 56.8125 31C56.8125 37.0951 54.3952 42.9415 50.0908 47.2569C49.8285 47.4907 49.6166 47.7756 49.4682 48.0942C49.3198 48.4127 49.2379 48.7581 49.2276 49.1094C49.2172 49.4607 49.2787 49.8103 49.4081 50.137C49.5376 50.4637 49.7324 50.7606 49.9805 51.0094C50.2286 51.2582 50.5249 51.4538 50.8513 51.5842C51.1776 51.7146 51.5271 51.7771 51.8784 51.7677C52.2296 51.7584 52.5753 51.6775 52.8943 51.53C53.2132 51.3824 53.4987 51.1714 53.7333 50.9097C59.0063 45.6254 61.9677 38.4651 61.9677 31C61.9677 23.5348 59.0063 16.3745 53.7333 11.0902Z" fill="white"/>
<path d="M46.7402 18.8402C46.5019 18.5934 46.2168 18.3966 45.9017 18.2612C45.5865 18.1259 45.2475 18.0546 44.9045 18.0516C44.5615 18.0486 44.2213 18.114 43.9038 18.2439C43.5863 18.3738 43.2979 18.5656 43.0553 18.8082C42.8128 19.0507 42.621 19.3391 42.4911 19.6566C42.3612 19.9741 42.2958 20.3143 42.2988 20.6573C42.3018 21.0003 42.3731 21.3393 42.5084 21.6545C42.6438 21.9696 42.8406 22.2547 43.0874 22.493C45.3391 24.7515 46.6036 27.8107 46.6036 30.9999C46.6036 34.1892 45.3391 37.2483 43.0874 39.5068C42.8406 39.7451 42.6438 40.0302 42.5084 40.3454C42.3731 40.6606 42.3018 40.9995 42.2988 41.3426C42.2958 41.6856 42.3612 42.0257 42.4911 42.3432C42.621 42.6607 42.8128 42.9491 43.0553 43.1917C43.2979 43.4343 43.5863 43.6261 43.9038 43.756C44.2213 43.8859 44.5615 43.9512 44.9045 43.9482C45.2475 43.9453 45.5865 43.874 45.9017 43.7386C46.2168 43.6032 46.5019 43.4064 46.7402 43.1597C49.9599 39.9319 51.7681 35.559 51.7681 30.9999C51.7681 26.4409 49.9599 22.0679 46.7402 18.8402Z" fill="white"/>
<path d="M35.6991 0.534856C27.8497 2.0082 20.8663 6.44088 16.1923 12.9168H12.9167C9.49221 12.9209 6.20919 14.283 3.78773 16.7045C1.36628 19.126 0.00410197 22.409 0 25.8334L0 36.1668C0.00410197 39.5912 1.36628 42.8742 3.78773 45.2957C6.20919 47.7172 9.49221 49.0793 12.9167 49.0834H16.1949C20.8676 55.5596 27.8502 59.9924 35.6991 61.4653C36.0716 61.5339 36.4546 61.5197 36.821 61.4238C37.1874 61.3278 37.5282 61.1525 37.8193 60.9102C38.1104 60.6679 38.3447 60.3646 38.5055 60.0217C38.6663 59.6788 38.7498 59.3047 38.75 58.9259V3.07427C38.7498 2.69552 38.6663 2.32145 38.5055 1.97854C38.3447 1.63563 38.1104 1.33229 37.8193 1.08998C37.5282 0.847685 37.1874 0.672359 36.821 0.576427C36.4546 0.480494 36.0716 0.466302 35.6991 0.534856Z" fill="white"/>
</g>
<defs>
<clipPath id="clip0_2945_746">
<rect width="62" height="62" fill="white"/>
</clipPath>
</defs>
</svg>
