<svg width="62" height="62" viewBox="0 0 62 62" fill="none" xmlns="http://www.w3.org/2000/svg">
<g clip-path="url(#clip0_2945_755)">
<path d="M35.6991 0.534856C27.8497 2.0082 20.8663 6.44088 16.1923 12.9168H12.9167C9.49221 12.9209 6.20919 14.283 3.78773 16.7045C1.36628 19.126 0.00410197 22.409 0 25.8334L0 36.1668C0.00410197 39.5912 1.36628 42.8742 3.78773 45.2957C6.20919 47.7172 9.49221 49.0793 12.9167 49.0834H16.1949C20.8676 55.5596 27.8502 59.9924 35.6991 61.4653C36.0716 61.5339 36.4546 61.5197 36.821 61.4238C37.1874 61.3278 37.5282 61.1525 37.8193 60.9102C38.1104 60.6679 38.3447 60.3646 38.5055 60.0217C38.6663 59.6788 38.7498 59.3047 38.75 58.9259V3.07427C38.7498 2.69552 38.6663 2.32145 38.5055 1.97854C38.3447 1.63563 38.1104 1.33229 37.8193 1.08998C37.5282 0.847685 37.1874 0.672359 36.821 0.576427C36.4546 0.480494 36.0716 0.466302 35.6991 0.534856Z" fill="white"/>
<line x1="46.8284" y1="24" x2="60" y2="37.1716" stroke="white" stroke-width="4" stroke-linecap="round"/>
<line x1="60" y1="23.8284" x2="46.8284" y2="37" stroke="white" stroke-width="4" stroke-linecap="round"/>
</g>
<defs>
<clipPath id="clip0_2945_755">
<rect width="62" height="62" fill="white"/>
</clipPath>
</defs>
</svg>
