<svg width="34" height="34" viewBox="0 0 34 34" fill="none" xmlns="http://www.w3.org/2000/svg">
<path fill-rule="evenodd" clip-rule="evenodd" d="M13.8125 5.84375C13.8125 5.55035 14.0503 5.3125 14.3438 5.3125H19.6562C19.9497 5.3125 20.1875 5.55035 20.1875 5.84375C20.1875 6.13715 19.9497 6.375 19.6562 6.375H17.5312V8.51374C19.5215 8.61694 21.3591 9.29661 22.8806 10.389L24.0618 9.20768C24.2693 9.00022 24.6057 9.00022 24.8132 9.20768C25.0206 9.41515 25.0206 9.75152 24.8132 9.95898L23.7148 11.0573C25.7881 12.906 27.0938 15.5974 27.0938 18.5938C27.0938 24.1684 22.5746 28.6875 17 28.6875C11.4254 28.6875 6.90625 24.1684 6.90625 18.5938C6.90625 13.1973 11.1411 8.79 16.4688 8.51374V6.375H14.3438C14.0503 6.375 13.8125 6.13715 13.8125 5.84375ZM17 9.5625C12.0122 9.5625 7.96875 13.6059 7.96875 18.5938C7.96875 23.5816 12.0122 27.625 17 27.625C21.9878 27.625 26.0312 23.5816 26.0312 18.5938C26.0312 13.6059 21.9878 9.5625 17 9.5625ZM17.5312 12.2188C17.5312 11.9253 17.2934 11.6875 17 11.6875C16.7066 11.6875 16.4688 11.9253 16.4688 12.2188V18.5273C16.4688 18.8207 16.7066 19.0586 17 19.0586C17.2934 19.0586 17.5312 18.8207 17.5312 18.5273V12.2188Z" fill="#C19F77"/>
</svg>
