<svg xmlns="http://www.w3.org/2000/svg" style="display:none"><symbol id="come-back-arrow" viewBox="0 0 39 6"><path d="M0 3l5 2.887V.113L0 3zm39-.5H4.5v1H39v-1z" fill="#fff"/></symbol><symbol id="location" viewBox="0 0 30 30"><path fill-rule="evenodd" clip-rule="evenodd" d="M8.906 12.685c0-.858.268-2.655 1.18-4.22.896-1.541 2.398-2.84 4.914-2.84 2.519 0 4.028 1.287 4.93 2.82.918 1.557 1.193 3.353 1.193 4.24 0 2.581-1.353 5.526-2.869 7.863-.752 1.16-1.53 2.149-2.173 2.842a7.87 7.87 0 0 1-.82.787c-.11.088-.196.145-.256.178l-.005.003-.004-.003a1.872 1.872 0 0 1-.255-.177 7.818 7.818 0 0 1-.817-.787c-.64-.693-1.414-1.682-2.163-2.842-1.508-2.337-2.855-5.282-2.855-7.864zM15 4.687c-2.92 0-4.7 1.544-5.725 3.306-1.011 1.738-1.306 3.706-1.306 4.692 0 2.856 1.466 5.99 3.004 8.373.775 1.2 1.582 2.231 2.261 2.968.34.368.654.67.922.885.134.106.266.2.391.267a.967.967 0 0 0 .453.134.97.97 0 0 0 .453-.133c.125-.069.257-.161.391-.268.27-.214.585-.517.926-.884.681-.737 1.492-1.769 2.27-2.969 1.547-2.383 3.02-5.516 3.02-8.373 0-1.016-.302-2.985-1.322-4.716-1.034-1.756-2.82-3.282-5.738-3.282zm0 9.375a2.344 2.344 0 1 1 0-4.687 2.344 2.344 0 0 1 0 4.688zm-3.281-2.343a3.281 3.281 0 1 1 6.562 0 3.281 3.281 0 0 1-6.562 0z" fill="#C19F77"/></symbol><symbol id="temp-icon-left-arrow" viewBox="0 0 31.494 31.494"><path d="M10.273 5.01a1.117 1.117 0 0 1 1.587 1.57l-8.047 8.047h26.554c.62 0 1.127.492 1.127 1.11 0 .62-.508 1.128-1.127 1.128H3.813l8.047 8.032c.43.444.43 1.16 0 1.587a1.112 1.112 0 0 1-1.587 0L.32 16.532a1.12 1.12 0 0 1 0-1.57l9.953-9.953z" fill="#1E201D"/></symbol><symbol id="temp-icon-right-arrow" viewBox="0 0 31.49 31.49"><path d="M21.205 5.007a1.117 1.117 0 0 0-1.587 1.57l8.047 8.048H1.11c-.618 0-1.11.493-1.11 1.112 0 .62.492 1.127 1.11 1.127h26.555l-8.047 8.032c-.43.444-.43 1.16 0 1.587.444.444 1.16.444 1.587 0l9.952-9.952a1.092 1.092 0 0 0 0-1.57l-9.952-9.95z" fill="#1E201D"/></symbol><symbol id="watch" viewBox="0 0 34 34"><path fill-rule="evenodd" clip-rule="evenodd" d="M13.813 5.844c0-.294.237-.532.53-.532h5.313a.531.531 0 1 1 0 1.063h-2.125v2.139c1.99.103 3.828.783 5.35 1.875l1.18-1.181a.531.531 0 0 1 .752.751l-1.098 1.098a10.07 10.07 0 0 1 3.379 7.537c0 5.574-4.52 10.093-10.094 10.093-5.575 0-10.094-4.519-10.094-10.093 0-5.397 4.235-9.804 9.563-10.08V6.375h-2.125a.531.531 0 0 1-.531-.531zM17 9.562a9.031 9.031 0 1 0 0 18.063 9.031 9.031 0 0 0 0-18.063zm.531 2.657a.531.531 0 1 0-1.062 0v6.308a.531.531 0 1 0 1.062 0V12.22z" fill="#C19F77"/></symbol></svg>